<svg xmlns="http://www.w3.org/2000/svg" viewBox="190.928 224.777 27.577 28.299" width="27.577px"
    height="28.299px">
    <path fill-rule="evenodd" clip-rule="evenodd"
        d="M 213.729 226.192 C 213.729 225.41 213.095 224.777 212.314 224.777 L 209.218 224.777 C 208.436 224.777 207.803 225.41 207.803 226.192 L 207.803 229.257 C 207.803 230.039 208.436 230.672 209.218 230.672 L 211.163 230.672 C 211.945 230.672 212.578 231.306 212.578 232.087 L 212.578 251.66 C 212.578 252.442 213.212 253.075 213.993 253.075 L 217.09 253.075 C 217.871 253.075 218.505 252.442 218.505 251.66 L 218.505 232.087 C 218.505 231.305 217.871 230.672 217.09 230.672 L 215.144 230.672 C 214.362 230.672 213.729 230.039 213.729 229.257 L 213.729 226.192 Z M 201.836 226.192 C 201.836 225.41 201.203 224.777 200.421 224.777 L 197.325 224.777 C 196.544 224.777 195.91 225.41 195.91 226.192 L 195.91 229.257 C 195.91 230.039 195.277 230.672 194.495 230.672 L 192.343 230.672 C 191.561 230.672 190.928 231.306 190.928 232.087 L 190.928 251.661 C 190.928 252.442 191.561 253.076 192.343 253.076 L 195.439 253.076 C 196.22 253.076 196.854 252.442 196.854 251.661 L 196.854 232.087 C 196.854 231.306 197.487 230.672 198.269 230.672 L 200.421 230.672 C 201.203 230.672 201.836 230.039 201.836 229.257 L 201.836 226.192 Z M 207.721 237.477 C 207.721 236.696 207.087 236.062 206.306 236.062 L 203.21 236.062 C 202.428 236.062 201.795 236.696 201.795 237.477 L 201.795 246.102 C 201.795 246.883 202.428 247.517 203.21 247.517 L 206.306 247.517 C 207.087 247.517 207.721 246.883 207.721 246.102 L 207.721 237.477 Z"
        fill="#2B6CB0" transform="matrix(1, 0, 0, 1, 1.4210854715202004e-14, 0)"></path>
</svg>